<svg width="238" height="64" viewBox="0 0 238 64" fill="none" xmlns="http://www.w3.org/2000/svg">
<path d="M94.6491 24.208C94.6491 20.291 91.7533 18.283 88.0523 18.283H81.2012V36.751H85.0152V30.2462H87.911C91.7815 30.2462 94.6491 28.2806 94.6491 24.208ZM90.8068 24.2929C90.8068 26.0181 89.253 26.6827 87.7415 26.6827H85.0152V21.8889H87.7274C89.3095 21.8889 90.8068 22.5111 90.8068 24.2929Z" fill="#FAFAFA"/>
<path d="M99.1821 36.751L100.552 33.0178H108.731L110.116 36.751H114.057L106.98 18.283H102.389L95.3398 36.751H99.1821ZM104.649 21.9879L107.432 29.4826H101.866L104.649 21.9879Z" fill="#FAFAFA"/>
<path d="M130.354 36.751L126.187 29.5392C128.673 28.6341 129.973 26.7675 129.973 24.1373C129.973 20.2203 127.035 18.283 123.447 18.283H116.172V36.751H119.986V30.1189H122.288L126.117 36.751H130.354ZM123.164 26.5837H119.986V21.8889H123.15C124.577 21.8889 126.117 22.4404 126.117 24.208C126.117 25.9474 124.577 26.5837 123.164 26.5837Z" fill="#FAFAFA"/>
<path d="M137.156 24.0086L145.632 36.7496H149.517V18.2815H145.745V30.3296L137.736 18.2815H133.385V36.7496H137.156V24.0086Z" fill="#FAFAFA"/>
<path d="M155.52 36.751L156.89 33.0178H165.069L166.454 36.751H170.395L163.318 18.283H158.727L151.678 36.751H155.52ZM160.987 21.9879L163.77 29.4826H158.204L160.987 21.9879Z" fill="#FAFAFA"/>
<path d="M176.32 18.283H172.506V36.751H176.32V18.283Z" fill="#FAFAFA"/>
<path d="M179.514 27.531C179.514 32.8621 183.751 37.0337 189.049 37.0337C194.36 37.0337 198.669 32.8056 198.669 27.432C198.669 22.1292 194.445 18 189.148 18C183.85 18 179.514 22.2281 179.514 27.531ZM183.427 27.5027C183.427 24.321 185.913 21.7049 189.105 21.7049C192.284 21.7049 194.784 24.321 194.784 27.5027C194.784 30.6844 192.284 33.3288 189.105 33.3288C185.913 33.3288 183.427 30.6844 183.427 27.5027Z" fill="#FAFAFA"/>
<path d="M200.697 27.531C200.697 32.9046 204.822 37.0054 210.19 37.0054C213.82 37.0054 217.422 35.0116 218.694 31.5188L215.191 29.8925C214.385 31.8864 212.549 33.3005 210.232 33.3005C206.955 33.3005 204.653 30.6844 204.653 27.4744C204.653 24.321 207.026 21.7191 210.232 21.7191C212.549 21.7191 214.357 23.02 215.134 25.0563L218.623 23.4443C217.38 19.9797 213.891 18 210.261 18C204.977 18 200.697 22.1999 200.697 27.531Z" fill="#FAFAFA"/>
<path d="M223.1 36.751L224.47 33.0178H232.649L234.034 36.751H237.975L230.898 18.283H226.307L219.258 36.751H223.1ZM228.567 21.9879L231.35 29.4826H225.784L228.567 21.9879Z" fill="#FAFAFA"/>
<path d="M83.3055 44.2886C83.927 44.2886 84.4532 44.4017 84.8876 44.628C85.3184 44.8542 85.6433 45.1724 85.8623 45.5754C86.0883 45.982 86.2013 46.4521 86.2013 46.9895C86.2013 47.5269 86.0883 48.0006 85.8623 48.4036C85.6433 48.7995 85.3184 49.1106 84.8876 49.3369C84.4532 49.5632 83.927 49.6763 83.3055 49.6763H81.6951V52.8721H80V44.2886H83.3055ZM83.0936 48.3329C84.033 48.3329 84.5062 47.8874 84.5062 46.9895C84.5062 46.0845 84.033 45.632 83.0936 45.632H81.6951V48.3329H83.0936Z" fill="#D4D4D4"/>
<path d="M92.7848 52.9997C91.9937 52.9997 91.2945 52.8406 90.6941 52.5189C90.1008 52.2008 89.6347 51.7094 89.2956 51.0483C88.9566 50.3907 88.7871 49.5705 88.7871 48.5877C88.7871 47.5979 88.9566 46.7777 89.2956 46.1272C89.6347 45.4697 90.1008 44.9783 90.6941 44.6566C91.2945 44.3278 91.9937 44.1616 92.7848 44.1616C93.5652 44.1616 94.2539 44.3242 94.8472 44.6424C95.4475 44.9641 95.9207 45.4555 96.2598 46.1131C96.5988 46.7742 96.7683 47.5979 96.7683 48.5877C96.7683 49.5705 96.5988 50.3907 96.2598 51.0483C95.9207 51.7094 95.4475 52.2008 94.8472 52.5189C94.2539 52.8406 93.5652 52.9997 92.7848 52.9997ZM92.7848 51.5291C93.5087 51.5291 94.0596 51.2957 94.4375 50.822C94.8224 50.3518 95.0167 49.6059 95.0167 48.5877C95.0167 47.5625 94.8224 46.8131 94.4375 46.3393C94.0596 45.8691 93.5087 45.6323 92.7848 45.6323C92.0502 45.6323 91.4887 45.8691 91.1038 46.3393C90.7153 46.8131 90.5246 47.5625 90.5246 48.5877C90.5246 49.6059 90.7153 50.3518 91.1038 50.822C91.4887 51.2957 92.0502 51.5291 92.7848 51.5291Z" fill="#D4D4D4"/>
<path d="M103.364 52.9996C102.178 52.9996 101.295 52.7239 100.723 52.1653C100.158 51.5997 99.875 50.7654 99.875 49.6624V44.2888H101.542V49.6482C101.542 50.2704 101.687 50.7442 101.98 51.0623C102.28 51.3734 102.743 51.529 103.364 51.529C104.579 51.529 105.186 50.9032 105.186 49.6482V44.2888H106.839V49.6624C106.839 50.7654 106.55 51.5997 105.977 52.1653C105.412 52.7239 104.54 52.9996 103.364 52.9996Z" fill="#D4D4D4"/>
<path d="M113.092 53C112.498 53 111.965 52.9293 111.495 52.7878C111.033 52.6394 110.648 52.4449 110.337 52.2081C110.033 51.9641 109.8 51.699 109.631 51.4162L110.563 50.2708H110.719C110.973 50.6596 111.298 50.9637 111.693 51.1899C112.096 51.4162 112.562 51.5293 113.092 51.5293C113.544 51.5293 113.883 51.4374 114.109 51.2465C114.342 51.0485 114.462 50.7869 114.462 50.4546C114.462 50.2495 114.423 50.0799 114.349 49.9455C114.271 49.8041 114.151 49.6874 113.982 49.592C113.812 49.4895 113.579 49.4046 113.289 49.3375L112.188 49.0829C111.414 48.9062 110.839 48.6127 110.464 48.2062C110.086 47.7926 109.899 47.2587 109.899 46.6083C109.899 46.1275 110.016 45.7032 110.252 45.3356C110.496 44.9679 110.849 44.6815 111.312 44.473C111.782 44.2679 112.336 44.1619 112.979 44.1619C113.636 44.1619 114.201 44.2538 114.674 44.4305C115.144 44.6002 115.543 44.8689 115.875 45.2366L115.027 46.382H114.886C114.639 46.1275 114.363 45.9401 114.052 45.8164C113.742 45.6856 113.381 45.6184 112.979 45.6184C112.516 45.6184 112.163 45.7032 111.919 45.8729C111.672 46.0355 111.552 46.2618 111.552 46.5517C111.552 46.8168 111.637 47.0289 111.806 47.188C111.976 47.3507 112.272 47.4779 112.696 47.5698L113.812 47.7961C114.649 47.9764 115.257 48.2769 115.634 48.7011C116.009 49.1183 116.199 49.6627 116.199 50.3415C116.199 50.8788 116.079 51.3455 115.846 51.7414C115.62 52.1374 115.271 52.4485 114.801 52.6747C114.338 52.8904 113.77 53 113.092 53Z" fill="#D4D4D4"/>
<path d="M126.237 52.8724H124.457L123.807 50.8926H120.53L119.88 52.8724H118.143L121.109 44.2888H123.284L126.237 52.8724ZM122.084 46.0847L120.982 49.4644H123.341L122.239 46.0847H122.084Z" fill="#D4D4D4"/>
<path d="M131.962 44.2898C133.354 44.2898 134.42 44.6539 135.155 45.3786C135.889 46.0963 136.257 47.1675 136.257 48.5886C136.257 50.0027 135.889 51.0739 135.155 51.7986C134.42 52.5163 133.354 52.8734 131.962 52.8734H128.883V44.2898H131.962ZM131.863 51.4451C132.746 51.4451 133.407 51.2189 133.841 50.7664C134.282 50.3138 134.505 49.5891 134.505 48.5886C134.505 47.5811 134.282 46.8493 133.841 46.3968C133.407 45.9443 132.746 45.718 131.863 45.718H130.578V51.4451H131.863Z" fill="#D4D4D4"/>
<path d="M146.526 52.8731H144.746L144.096 50.8934H140.819L140.169 52.8731H138.432L141.398 44.2896H143.573L146.526 52.8731ZM142.373 46.0855L141.271 49.4651H143.63L142.528 46.0855H142.373Z" fill="#D4D4D4"/>
<path d="M151.346 48.8L237.498 48.9718" stroke="#00AA8B" stroke-width="6"/>
<mask id="mask0_300_1520" style="mask-type:luminance" maskUnits="userSpaceOnUse" x="8" y="25" width="36" height="29">
<path d="M8.54492 25.3904H43.2055V53.5258H8.54492V25.3904Z" fill="white"/>
</mask>
<g mask="url(#mask0_300_1520)">
<path fill-rule="evenodd" clip-rule="evenodd" d="M39.023 42.0953C42.214 45.9486 42.8731 48.8259 42.8438 53.5257H8.54492V29.9643L9.45192 29.5903L19.4913 25.4834V28.6142L11.4697 31.8946V50.6248H39.9024C39.6766 48.7748 38.7696 46.3446 36.7739 43.9326C35.0406 41.8363 32.4922 39.7746 28.8624 38.1253C26.5967 40.1887 26.9254 41.86 29.0754 43.8468L27.087 45.9669C24.6763 43.7428 23.4112 40.8893 25.2601 37.9027C21.7864 38.4409 21.2613 40.8145 21.4926 43.9271L18.5788 44.1278C18.2502 39.6998 19.6015 36.0636 24.3641 35.1167C21.9663 34.053 19.5721 34.801 18.2098 37.0743L15.7054 35.5874C18.151 31.5151 22.7117 30.6996 26.6886 33.0532C26.9089 33.1864 27.1274 33.3232 27.3477 33.4728C28.0233 29.2583 30.6599 27.0287 35.0241 27.9592L34.4164 30.7963C32.4115 30.3657 31.0987 30.82 30.4689 32.8124C33.4965 31.1594 36.8381 31.9621 39.6821 33.6334L38.1968 36.1493C35.8797 34.7883 33.267 34.0986 31.0289 35.9486C34.6073 37.7239 37.1961 39.8895 39.023 42.0953Z" fill="#D4D4D4"/>
</g>
<mask id="mask1_300_1520" style="mask-type:luminance" maskUnits="userSpaceOnUse" x="16" y="7" width="51" height="47">
<path d="M16.4121 7.28564H66.3558V53.5254H16.4121V7.28564Z" fill="white"/>
</mask>
<g mask="url(#mask1_300_1520)">
<path fill-rule="evenodd" clip-rule="evenodd" d="M31.8266 20.2506C28.474 21.6171 26.8326 24.0309 27.3228 27.678L24.4329 28.0502C23.9831 24.6968 24.9066 21.6463 27.5248 19.446C24.3173 19.4533 22.5033 20.745 21.4567 23.8229L18.6935 22.9052C20.2247 18.3896 23.3405 16.4191 28.0279 16.5633C25.2371 14.4268 21.3355 13.8868 18.6127 16.4246L16.6133 14.3119C20.2376 10.9293 25.496 11.192 29.4049 13.967C29.5481 10.6866 31.4557 7.67256 34.913 7.2876L35.2306 10.1703C33.1504 10.4002 32.3352 12.502 32.3168 14.352C34.8322 10.8362 39.1891 10.3254 43.2008 11.0606L42.6757 13.9105C39.8537 13.3923 36.5305 13.5018 34.711 16.0178C38.8953 15.0362 43.2357 16.2987 45.9346 19.716L43.6415 21.5095C41.519 18.8256 38.0397 18.0101 34.8322 18.9752C40.0685 23.4908 43.5313 28.3276 45.7914 32.9453C49.212 39.9459 49.8601 46.4593 49.7205 50.6191H63.421V23.7828L52.0909 15.277L47.2823 17.2475V14.1166L51.7567 12.2849L52.5242 11.9674L53.1888 12.4618L65.7674 21.8999L66.3513 22.3359V53.5255H46.6232C46.6232 53.5255 46.7957 52.1699 46.8141 50.6191C46.9518 46.8096 46.3753 40.7614 43.1659 34.2024C40.9058 29.5956 37.3512 24.7424 31.8266 20.2506ZM51.6869 31.389H54.6117V34.2936H51.6869V31.389ZM54.6117 29.82H51.6869V26.9136H54.6117V29.82ZM56.2752 29.82V26.9136H59.2V29.82H56.2752ZM56.2752 31.389H59.2V34.2936H56.2752V31.389Z" fill="#857A66"/>
</g>
</svg>
