<svg width="188" height="160" viewBox="0 0 188 160" fill="none" xmlns="http://www.w3.org/2000/svg">
<mask id="mask0_32_250" style="mask-type:luminance" maskUnits="userSpaceOnUse" x="37" y="51" width="61" height="50">
<path d="M37.7698 51.2899H97.9806V100.527H37.7698V51.2899Z" fill="white"/>
</mask>
<g mask="url(#mask0_32_250)">
<path fill-rule="evenodd" clip-rule="evenodd" d="M90.7149 80.5236C96.2582 87.2669 97.4033 92.3021 97.3522 100.527H37.7698V59.2944L39.3454 58.6399L56.7854 51.4528V56.9317L42.8506 62.6724V95.4502H92.2427C91.8504 92.2127 90.2748 87.9598 86.8078 83.7388C83.797 80.0703 79.37 76.4623 73.0644 73.576C69.1286 77.1871 69.6995 80.1118 73.4344 83.5888L69.9802 87.2989C65.7924 83.4068 63.5949 78.4132 66.8067 73.1865C60.7722 74.1284 59.86 78.2823 60.2619 83.7293L55.2002 84.0805C54.6293 76.3314 56.9768 69.9681 65.2502 68.311C61.0848 66.4496 56.9257 67.7586 54.5591 71.7369L50.2087 69.1348C54.4571 62.0083 62.3797 60.5811 69.2881 64.6999C69.6708 64.933 70.0504 65.1724 70.4331 65.4342C71.6068 58.0588 76.1869 54.1571 83.7683 55.7855L82.7126 60.7503C79.2297 59.9968 76.9492 60.7918 75.8552 64.2784C81.1146 61.3857 86.9195 62.7906 91.86 65.7152L89.2797 70.1181C85.2546 67.7363 80.716 66.5294 76.828 69.7669C83.0443 72.8736 87.5414 76.6635 90.7149 80.5236Z" fill="#D4D4D4"/>
</g>
<mask id="mask1_32_250" style="mask-type:luminance" maskUnits="userSpaceOnUse" x="51" y="19" width="88" height="82">
<path d="M51.4397 19.6073H138.2V100.527H51.4397V19.6073Z" fill="white"/>
</mask>
<g mask="url(#mask1_32_250)">
<path fill-rule="evenodd" clip-rule="evenodd" d="M78.2153 42.2957C72.3913 44.6871 69.5399 48.9112 70.3915 55.2937L65.3713 55.9451C64.5899 50.0766 66.1942 44.7382 70.7424 40.8876C65.1704 40.9004 62.0192 43.1609 60.2012 48.5473L55.401 46.9413C58.061 39.039 63.4736 35.5907 71.6163 35.8429C66.7683 32.1041 59.9907 31.159 55.2607 35.6003L51.7874 31.9029C58.0834 25.9834 67.218 26.4432 74.0084 31.2995C74.2572 25.5587 77.571 20.2842 83.5768 19.6105L84.1286 24.6552C80.5149 25.0575 79.0988 28.7356 79.0669 31.9732C83.4364 25.8206 91.0051 24.9266 97.974 26.2133L97.0619 31.2005C92.1596 30.2937 86.3867 30.4853 83.2259 34.8883C90.4947 33.1705 98.0346 35.38 102.723 41.3602L98.7395 44.4987C95.0525 39.802 89.0084 38.3748 83.4364 40.0639C92.5328 47.9662 98.5481 56.4304 102.474 64.5115C108.416 76.7625 109.542 88.1609 109.3 95.4406H133.1V48.477L113.417 33.592L105.064 37.0402V31.5613L112.837 28.3557L114.17 27.8001L115.325 28.6654L137.176 45.182L138.19 45.9451V100.527H103.919C103.919 100.527 104.219 98.1545 104.251 95.4406C104.49 88.7739 103.489 78.1897 97.9134 66.7114C93.9872 58.6494 87.8124 50.1565 78.2153 42.2957ZM112.716 61.788H117.797V66.871H112.716V61.788ZM117.797 59.0421H112.716V53.9559H117.797V59.0421ZM120.686 59.0421V53.9559H125.767V59.0421H120.686ZM120.686 61.788H125.767V66.871H120.686V61.788Z" fill="#857A66"/>
</g>
<path d="M34.1879 120.452C34.1879 116.915 31.5725 115.101 28.2299 115.101H22.0424V131.781H25.487V125.906H28.1023C31.598 125.906 34.1879 124.131 34.1879 120.452ZM30.7177 120.529C30.7177 122.087 29.3143 122.687 27.9493 122.687H25.487V118.358H27.9365C29.3654 118.358 30.7177 118.92 30.7177 120.529Z" fill="#FAFAFA"/>
<path d="M38.2736 131.781L39.5111 128.409H46.8979L48.1482 131.781H51.7076L45.316 115.101H41.1696L34.8035 131.781H38.2736ZM43.2109 118.447L45.7242 125.216H40.6976L43.2109 118.447Z" fill="#FAFAFA"/>
<path d="M66.431 131.781L62.6674 125.267C64.9128 124.45 66.0865 122.764 66.0865 120.389C66.0865 116.851 63.4329 115.101 60.1924 115.101H53.6221V131.781H57.0667V125.791H59.1462L62.6036 131.781H66.431ZM59.9372 122.598H57.0667V118.358H59.9245C61.213 118.358 62.6036 118.856 62.6036 120.452C62.6036 122.023 61.213 122.598 59.9372 122.598Z" fill="#FAFAFA"/>
<path d="M72.5843 120.274L80.2391 131.781H83.7475V115.101H80.3411V125.982L73.1074 115.101H69.178V131.781H72.5843V120.274Z" fill="#FAFAFA"/>
<path d="M89.1545 131.781L90.392 128.409H97.7788L99.0291 131.781H102.589L96.1968 115.101H92.0505L85.6843 131.781H89.1545ZM94.0918 118.447L96.6051 125.216H91.5785L94.0918 118.447Z" fill="#FAFAFA"/>
<path d="M107.948 115.101H104.503V131.781H107.948V115.101Z" fill="#FAFAFA"/>
<path d="M110.824 123.454C110.824 128.269 114.651 132.036 119.436 132.036C124.232 132.036 128.124 128.217 128.124 123.364C128.124 118.575 124.309 114.846 119.525 114.846C114.741 114.846 110.824 118.664 110.824 123.454ZM114.358 123.428C114.358 120.555 116.603 118.192 119.487 118.192C122.357 118.192 124.615 120.555 124.615 123.428C124.615 126.302 122.357 128.69 119.487 128.69C116.603 128.69 114.358 126.302 114.358 123.428Z" fill="#FAFAFA"/>
<path d="M129.955 123.454C129.955 128.307 133.68 132.011 138.528 132.011C141.807 132.011 145.06 130.21 146.208 127.055L143.044 125.587C142.317 127.387 140.658 128.664 138.566 128.664C135.606 128.664 133.527 126.302 133.527 123.403C133.527 120.555 135.67 118.205 138.566 118.205C140.658 118.205 142.291 119.38 142.993 121.219L146.144 119.763C145.022 116.634 141.87 114.846 138.592 114.846C133.82 114.846 129.955 118.639 129.955 123.454Z" fill="#FAFAFA"/>
<path d="M150.186 131.781L151.423 128.409H158.81L160.061 131.781H163.62L157.228 115.101H153.082L146.716 131.781H150.186ZM155.123 118.447L157.637 125.216H152.61L155.123 118.447Z" fill="#FAFAFA"/>
<path d="M65.2463 138.589C65.8077 138.589 66.2829 138.691 66.6752 138.896C67.0643 139.1 67.3578 139.387 67.5555 139.751C67.7596 140.118 67.8617 140.543 67.8617 141.028C67.8617 141.514 67.7596 141.941 67.5555 142.305C67.3578 142.663 67.0643 142.944 66.6752 143.148C66.2829 143.353 65.8077 143.455 65.2463 143.455H63.7919V146.341H62.261V138.589H65.2463ZM65.055 142.242C65.9034 142.242 66.3307 141.839 66.3307 141.028C66.3307 140.211 65.9034 139.802 65.055 139.802H63.7919V142.242H65.055Z" fill="#D4D4D4"/>
<path d="M73.7958 146.456C73.0813 146.456 72.4498 146.312 71.9076 146.022C71.3718 145.735 70.9508 145.291 70.6446 144.694C70.3384 144.1 70.1853 143.359 70.1853 142.471C70.1853 141.577 70.3384 140.837 70.6446 140.249C70.9508 139.655 71.3718 139.212 71.9076 138.921C72.4498 138.624 73.0813 138.474 73.7958 138.474C74.5007 138.474 75.1226 138.621 75.6584 138.908C76.2006 139.199 76.628 139.643 76.9342 140.236C77.2404 140.834 77.3935 141.577 77.3935 142.471C77.3935 143.359 77.2404 144.1 76.9342 144.694C76.628 145.291 76.2006 145.735 75.6584 146.022C75.1226 146.312 74.5007 146.456 73.7958 146.456ZM73.7958 145.128C74.4496 145.128 74.9472 144.917 75.2885 144.489C75.6361 144.065 75.8115 143.391 75.8115 142.471C75.8115 141.546 75.6361 140.869 75.2885 140.441C74.9472 140.016 74.4496 139.802 73.7958 139.802C73.1324 139.802 72.6252 140.016 72.2776 140.441C71.9268 140.869 71.7545 141.546 71.7545 142.471C71.7545 143.391 71.9268 144.065 72.2776 144.489C72.6252 144.917 73.1324 145.128 73.7958 145.128Z" fill="#D4D4D4"/>
<path d="M83.3612 146.456C82.2895 146.456 81.4921 146.207 80.9754 145.703C80.4651 145.192 80.21 144.438 80.21 143.442V138.589H81.7154V143.429C81.7154 143.991 81.8462 144.419 82.1109 144.706C82.382 144.987 82.7998 145.128 83.3612 145.128C84.4583 145.128 85.0069 144.563 85.0069 143.429V138.589H86.4996V143.442C86.4996 144.438 86.2381 145.192 85.7214 145.703C85.211 146.207 84.4232 146.456 83.3612 146.456Z" fill="#D4D4D4"/>
<path d="M92.1376 146.456C91.6018 146.456 91.1202 146.392 90.696 146.265C90.2782 146.13 89.9305 145.955 89.6499 145.741C89.3756 145.521 89.1651 145.281 89.012 145.026L89.854 143.991H89.9943C90.224 144.342 90.5174 144.617 90.8746 144.821C91.2382 145.026 91.6592 145.128 92.1376 145.128C92.5459 145.128 92.8521 145.045 93.0562 144.872C93.2667 144.694 93.3752 144.457 93.3752 144.157C93.3752 143.972 93.3401 143.819 93.2731 143.697C93.2029 143.57 93.0945 143.464 92.9414 143.378C92.7883 143.286 92.5778 143.209 92.3163 143.148L91.3211 142.918C90.6226 142.759 90.1028 142.494 89.7647 142.127C89.4234 141.753 89.2544 141.271 89.2544 140.683C89.2544 140.249 89.3596 139.866 89.5733 139.534C89.7934 139.202 90.1123 138.943 90.5301 138.755C90.9543 138.57 91.4551 138.474 92.0356 138.474C92.6288 138.474 93.1391 138.557 93.5665 138.717C93.9907 138.87 94.3511 139.113 94.6509 139.445L93.8855 140.479H93.7579C93.5346 140.249 93.2858 140.08 93.0052 139.968C92.7245 139.85 92.3992 139.789 92.0356 139.789C91.6178 139.789 91.2988 139.866 91.0787 140.019C90.8555 140.166 90.747 140.371 90.747 140.632C90.747 140.872 90.8236 141.063 90.9767 141.207C91.1298 141.354 91.3977 141.469 91.7804 141.552L92.7883 141.756C93.5442 141.919 94.0928 142.19 94.4341 142.574C94.7721 142.95 94.9444 143.442 94.9444 144.055C94.9444 144.54 94.8359 144.962 94.6254 145.319C94.4213 145.677 94.1055 145.958 93.6813 146.162C93.2635 146.357 92.75 146.456 92.1376 146.456Z" fill="#D4D4D4"/>
<path d="M104.027 146.341H102.42L101.833 144.553H98.8729L98.286 146.341H96.7168L99.396 138.589H101.361L104.027 146.341ZM100.276 140.211L99.2811 143.263H101.412L100.417 140.211H100.276Z" fill="#D4D4D4"/>
<path d="M109.182 138.589C110.439 138.589 111.402 138.918 112.065 139.572C112.729 140.221 113.06 141.188 113.06 142.471C113.06 143.749 112.729 144.716 112.065 145.371C111.402 146.019 110.439 146.341 109.182 146.341H106.401V138.589H109.182ZM109.093 145.051C109.89 145.051 110.486 144.847 110.879 144.438C111.277 144.03 111.478 143.375 111.478 142.471C111.478 141.562 111.277 140.901 110.879 140.492C110.486 140.083 109.89 139.879 109.093 139.879H107.932V145.051H109.093Z" fill="#D4D4D4"/>
<path d="M122.339 146.341H120.732L120.145 144.553H117.185L116.598 146.341H115.029L117.708 138.589H119.673L122.339 146.341ZM118.588 140.211L117.593 143.263H119.724L118.729 140.211H118.588Z" fill="#D4D4D4"/>
<path d="M8.79333 143.276H45.5201" stroke="#00AA8B" stroke-width="6"/>
<path d="M138.193 142.663H174.92" stroke="#00AA8B" stroke-width="6"/>
</svg>
