<svg width="76" height="64" viewBox="0 0 76 64" fill="none" xmlns="http://www.w3.org/2000/svg">
<mask id="mask0_300_1520" style="mask-type:luminance" maskUnits="userSpaceOnUse" x="8" y="25" width="36" height="29">
<path d="M8.54492 25.3904H43.2055V53.5258H8.54492V25.3904Z" fill="white"/>
</mask>
<g mask="url(#mask0_300_1520)">
<path fill-rule="evenodd" clip-rule="evenodd" d="M39.023 42.0953C42.214 45.9486 42.8731 48.8259 42.8438 53.5257H8.54492V29.9643L9.45192 29.5903L19.4913 25.4834V28.6142L11.4697 31.8946V50.6248H39.9024C39.6766 48.7748 38.7696 46.3446 36.7739 43.9326C35.0406 41.8363 32.4922 39.7746 28.8624 38.1253C26.5967 40.1887 26.9254 41.86 29.0754 43.8468L27.087 45.9669C24.6763 43.7428 23.4112 40.8893 25.2601 37.9027C21.7864 38.4409 21.2613 40.8145 21.4926 43.9271L18.5788 44.1278C18.2502 39.6998 19.6015 36.0636 24.3641 35.1167C21.9663 34.053 19.5721 34.801 18.2098 37.0743L15.7054 35.5874C18.151 31.5151 22.7117 30.6996 26.6886 33.0532C26.9089 33.1864 27.1274 33.3232 27.3477 33.4728C28.0233 29.2583 30.6599 27.0287 35.0241 27.9592L34.4164 30.7963C32.4115 30.3657 31.0987 30.82 30.4689 32.8124C33.4965 31.1594 36.8381 31.9621 39.6821 33.6334L38.1968 36.1493C35.8797 34.7883 33.267 34.0986 31.0289 35.9486C34.6073 37.7239 37.1961 39.8895 39.023 42.0953Z" fill="#D4D4D4"/>
</g>
<mask id="mask1_300_1520" style="mask-type:luminance" maskUnits="userSpaceOnUse" x="16" y="7" width="51" height="47">
<path d="M16.4121 7.28564H66.3558V53.5254H16.4121V7.28564Z" fill="white"/>
</mask>
<g mask="url(#mask1_300_1520)">
<path fill-rule="evenodd" clip-rule="evenodd" d="M31.8266 20.2506C28.474 21.6171 26.8326 24.0309 27.3228 27.678L24.4329 28.0502C23.9831 24.6968 24.9066 21.6463 27.5248 19.446C24.3173 19.4533 22.5033 20.745 21.4567 23.8229L18.6935 22.9052C20.2247 18.3896 23.3405 16.4191 28.0279 16.5633C25.2371 14.4268 21.3355 13.8868 18.6127 16.4246L16.6133 14.3119C20.2376 10.9293 25.496 11.192 29.4049 13.967C29.5481 10.6866 31.4557 7.67256 34.913 7.2876L35.2306 10.1703C33.1504 10.4002 32.3352 12.502 32.3168 14.352C34.8322 10.8362 39.1891 10.3254 43.2008 11.0606L42.6757 13.9105C39.8537 13.3923 36.5305 13.5018 34.711 16.0178C38.8953 15.0362 43.2357 16.2987 45.9346 19.716L43.6415 21.5095C41.519 18.8256 38.0397 18.0101 34.8322 18.9752C40.0685 23.4908 43.5313 28.3276 45.7914 32.9453C49.212 39.9459 49.8601 46.4593 49.7205 50.6191H63.421V23.7828L52.0909 15.277L47.2823 17.2475V14.1166L51.7567 12.2849L52.5242 11.9674L53.1888 12.4618L65.7674 21.8999L66.3513 22.3359V53.5255H46.6232C46.6232 53.5255 46.7957 52.1699 46.8141 50.6191C46.9518 46.8096 46.3753 40.7614 43.1659 34.2024C40.9058 29.5956 37.3512 24.7424 31.8266 20.2506ZM51.6869 31.389H54.6117V34.2936H51.6869V31.389ZM54.6117 29.82H51.6869V26.9136H54.6117V29.82ZM56.2752 29.82V26.9136H59.2V29.82H56.2752ZM56.2752 31.389H59.2V34.2936H56.2752V31.389Z" fill="#857A66"/>
</g>
</svg>
